# xmcd
#
# Track frame offsets:
# 183
# 16120
# 34720
# 64808
# 85233
# 99045
# 113670
# 158220
# 170283
# 187258
# 219708
# 259008
#
# Disc length: 3703 seconds
#
#
# Revision: 2
# Processed by: cddbd v1.5.2PL0 Copyright (c) Steve Scherf et al.
# Submitted via: FreeRIP 2.92 
#
DISCID=950e750c
DTITLE=Stevie Ray Vaughan - G*Ray
DYEAR=1900
DGENRE=
TTITLE0=Testify
TTITLE1=So Excited
TTITLE2=Vodoo Chile
TTITLE3=Pride and Joy
TTITLE4=Tell Me
TTITLE5=Mary Had a Little Lamb
TTITLE6=Texas Flood
TTITLE7=Love Struck Baby
TTITLE8=Hug You Squeeze You
TTITLE9=Third Stone from The Sun
TTITLE10=Lenny
TTITLE11=Wham
EXTD=
EXTT0=
EXTT1=
EXTT2=
EXTT3=
EXTT4=
EXTT5=
EXTT6=
EXTT7=
EXTT8=
EXTT9=
EXTT10=
EXTT11=
PLAYORDER=
